<svg id="Capa_1" data-name="Capa 1" xmlns="http://www.w3.org/2000/svg" xmlns:xlink="http://www.w3.org/1999/xlink" viewBox="0 0 1000 1000"><defs><style>.cls-1{fill:url(#Degradado_sin_nombre_29);}.cls-2{clip-path:url(#clip-path);}.cls-3{fill:#fff;}</style><linearGradient id="Degradado_sin_nombre_29" x1="23.01" y1="452.54" x2="976.99" y2="452.54" gradientUnits="userSpaceOnUse"><stop offset="0" stop-color="#9e7fff"/><stop offset="0.88" stop-color="#7f9dff"/><stop offset="1" stop-color="#fff"/></linearGradient><clipPath id="clip-path"><path class="cls-1" d="M35,134.18H694.28A282.71,282.71,0,0,1,977,416.89v71.29A282.71,282.71,0,0,1,694.28,770.9H35a12,12,0,0,1-12-12V146.18a12,12,0,0,1,12-12Z"/></clipPath></defs><title>LOGO</title><path class="cls-1" d="M35,134.18H694.28A282.71,282.71,0,0,1,977,416.89v71.29A282.71,282.71,0,0,1,694.28,770.9H35a12,12,0,0,1-12-12V146.18a12,12,0,0,1,12-12Z"/><g class="cls-2"><path class="cls-1" d="M35,134.18H694.28A282.71,282.71,0,0,1,977,416.89v71.29A282.71,282.71,0,0,1,694.28,770.9H35a12,12,0,0,1-12-12V146.18a12,12,0,0,1,12-12Z"/><path class="cls-3" d="M550.32,730H317.1L500,203.52H832.2L1015.05,730H782.17l-30.36-89H580.69Zm72.8-213.22h86.25L666.25,386Z"/></g><path class="cls-3" d="M53.61,730V203.52H286.49V730Z"/></svg>